<?xml version="1.0" encoding="utf-8"?>
<!-- Generator: Adobe Illustrator 16.0.0, SVG Export Plug-In . SVG Version: 6.00 Build 0)  -->
<!DOCTYPE svg PUBLIC "-//W3C//DTD SVG 1.1//EN" "http://www.w3.org/Graphics/SVG/1.1/DTD/svg11.dtd">
<svg version="1.1" id="Layer_1" xmlns="http://www.w3.org/2000/svg" xmlns:xlink="http://www.w3.org/1999/xlink" x="0px" y="0px"
	 width="161.358px" height="59px" viewBox="4.809 0 161.358 59" enable-background="new 4.809 0 161.358 59" xml:space="preserve">
<g id="bg" display="none">
	<rect x="-3.08" y="-5.3" display="inline" fill="#00205D" width="177.08" height="69.3"/>
</g>
<g id="ico">
	<g>
		<path fill="#06205D" d="M161.234,37.283c-0.666,0-1.205,0.533-1.205,1.199c0,0.66,0.539,1.193,1.205,1.193
			c0.658,0,1.193-0.533,1.193-1.193C162.427,37.816,161.893,37.283,161.234,37.283"/>
		<path fill="#06205D" d="M65.959,47.186c0.5,0.075,0.897-0.092,1.169-0.271c0.27-0.188,0.404-0.419,0.404-0.702
			c0-0.313-0.152-0.548-0.469-0.7c-0.22-0.113-0.283-0.287-1.416-0.535c-0.873-0.188-1.521-0.373-1.933-0.551
			c-0.414-0.179-0.751-0.434-1.007-0.767c-0.257-0.334-0.385-0.709-0.385-1.121c0-0.667,0.332-1.233,0.995-1.703
			c0.661-0.474,1.552-0.707,2.662-0.707c0.585,0,1.083,0.067,1.493,0.209c0.295,0.097,0.576,0.253,0.855,0.481v-0.551h1.578v2.205
			H68.05c-0.049-0.332-0.19-0.576-0.43-0.736c-0.24-0.166-0.864-0.25-1.275-0.25c-0.443,0-0.801,0.093-1.063,0.271
			c-0.264,0.183-0.399,0.394-0.399,0.63c0,0.227,0.131,0.199,0.354,0.359c0.22,0.171,0.753,0.208,1.504,0.345
			c1.18,0.216,1.399,0.418,1.889,0.611c0.49,0.2,0.871,0.471,1.136,0.812c0.269,0.342,0.342,1.074,0.342,1.518
			c0,0.703-0.343,1.3-1.026,1.787c-0.685,0.486-0.979,0.729-2.12,0.729c-0.626,0-1.153-0.066-1.578-0.212
			c-0.428-0.146-1.027-0.354-1.381-0.627v0.694h-1.669V46.02h1.976c0.083,0.397,0.592,0.735,0.889,0.926
			C65.2,46.941,65.793,47.159,65.959,47.186"/>
		<path fill="#06205D" d="M101.335,46.2c0.103-0.191,0.062-1.673,0.062-1.474v-2.732h-1.08v-1.732h3.597v6.397h0.918v1.735h-2.779
			v-1.072c-0.318,0.395-0.725,0.697-1.223,0.904c-0.492,0.207-0.404,0.308-0.949,0.308c-0.631,0-0.771-0.06-1.312-0.359
			c-0.545-0.3-0.777-0.778-1.031-1.27c-0.254-0.488-0.383-1.017-0.383-1.581v-3.332h-1.156V40.26h3.586v4.506
			c0,0.625-0.031,1.434,0.324,1.767C99.904,46.533,100.759,47.252,101.335,46.2"/>
		<polygon fill="#06205D" points="130.667,46.662 130.667,45.749 132.457,45.749 132.457,48.395 125.166,48.395 125.166,46.895 
			129.08,41.964 127.166,41.964 127.166,42.951 125.384,42.951 125.384,40.266 132.21,40.266 132.21,41.964 128.541,46.662 		"/>
		<path fill="#06205D" d="M152.387,42.468c-0.306,0.341-0.457,0.91-0.457,1.696v2.496h0.592v1.734h-3.996V46.66h1.011v-4.665h-1.011
			v-1.731h2.785v1.205c0.25-0.447,0.562-0.785,0.938-1.011c0.383-0.229,0.82-0.34,1.326-0.34c0.5,0,0.967,0.118,1.404,0.358
			c0.438,0.236,0.766,0.518,0.963,0.842c0.207,0.324,0.35,0.648,0.426,0.98c0.053,0.236,0.086,0.586,0.086,1.049v3.312h1.012v1.733
			h-4.018V46.66h0.611v-2.766c0-0.643-0.133-1.142-0.445-1.453C152.986,41.812,152.387,42.468,152.387,42.468"/>
		<path fill="#06205D" d="M136.611,37.303c-0.666,0-1.199,0.533-1.199,1.196c0,0.662,0.533,1.198,1.199,1.198
			c0.66,0,1.197-0.536,1.197-1.198C137.809,37.836,137.271,37.303,136.611,37.303"/>
		<polygon fill="#06205D" points="134.337,40.262 137.779,40.262 137.779,46.66 138.658,46.66 138.658,48.395 134.337,48.395 
			134.337,46.66 135.438,46.66 135.438,41.995 134.337,41.995 		"/>
		<polygon fill="#06205D" points="159.064,40.262 162.5,40.262 162.5,46.66 163.466,46.66 163.466,48.395 159.143,48.395 
			159.143,46.66 160.164,46.66 160.164,41.995 159.064,41.995 		"/>
		<path fill="#06205D" d="M106.201,40.252h3.639v1.415c0.328-0.423,0.729-0.739,1.203-0.962c0.478-0.219,1.144-0.371,1.998-0.453
			v2.387c-0.985,0.053-1.733,0.285-2.252,0.699c-0.518,0.416-0.771,0.979-0.771,1.693v1.642h0.963v1.733h-4.359v-1.733h0.965v-4.651
			h-1.385V40.252z"/>
		<path fill="#06205D" d="M59.514,46.665l-2.885-8.039h1.574v-1.728h-2.408H51.03v1.728h1.575l-2.875,8.039h-1.306v1.729h4.955
			v-1.729h-1.172l0.8-2.029h3.081l0.826,2.029H55.68v1.729h5.131v-1.729H59.514z M53.461,43.021l1.16-3.732l1.137,3.732H53.461z"/>
		<path fill="#06205D" d="M75.449,47.191c0.503,0.076,0.899-0.09,1.167-0.274c0.271-0.187,0.406-0.416,0.406-0.703
			c0-0.313-0.154-0.545-0.467-0.702c-0.222-0.106-0.281-0.287-1.418-0.533c-0.873-0.188-1.521-0.373-1.934-0.551
			c-0.412-0.177-0.75-0.436-1.006-0.77c-0.256-0.332-0.387-0.703-0.387-1.121c0-0.668,0.335-1.234,0.997-1.705
			c0.666-0.466,1.551-0.703,2.663-0.703c0.586,0,1.082,0.072,1.492,0.208c0.291,0.097,0.577,0.259,0.857,0.483v-0.547h1.571v2.201
			h-1.847c-0.051-0.328-0.195-0.576-0.434-0.74c-0.241-0.164-0.864-0.248-1.277-0.248c-0.444,0-0.796,0.091-1.06,0.271
			c-0.266,0.185-0.399,0.392-0.399,0.632c0,0.226,0.133,0.192,0.35,0.359c0.223,0.17,0.761,0.206,1.504,0.345
			c1.184,0.212,1.402,0.416,1.893,0.611c0.487,0.196,0.868,0.467,1.137,0.81c0.267,0.34,0.339,1.073,0.339,1.514
			c0,0.705-0.342,1.302-1.023,1.789c-0.69,0.488-0.984,0.729-2.121,0.729c-0.625,0-1.153-0.067-1.582-0.213
			c-0.428-0.144-1.021-0.354-1.38-0.631v0.702h-1.666V46.02h1.978c0.079,0.397,0.592,0.732,0.885,0.922
			C74.688,46.945,75.284,47.168,75.449,47.191"/>
		<path fill="#06205D" d="M146.292,41.241c-0.758-0.832-1.664-1.25-2.723-1.25c-0.678,0-1.326,0.19-1.936,0.569
			c-0.609,0.377-1.086,0.908-1.43,1.59c-0.342,0.681-0.513,1.395-0.513,2.143c0,0.745,0.171,1.452,0.513,2.137
			c0.352,0.68,0.821,1.209,1.436,1.588c0.609,0.381,1.252,0.569,1.926,0.569c0.67,0,1.316-0.192,1.936-0.584
			c0.619-0.39,1.097-0.926,1.431-1.604c0.332-0.682,0.496-1.396,0.496-2.138C147.427,43.08,147.055,42.073,146.292,41.241
			 M143.501,46.374c-0.725,0-1.313-0.929-1.313-2.072c0-1.143,0.59-2.067,1.313-2.067c0.722,0,1.306,0.927,1.306,2.067
			C144.805,45.445,144.221,46.374,143.501,46.374"/>
		<path fill="#06205D" d="M92.427,45.637c-0.344,0.482-0.868,0.787-1.454,0.787c-1.024,0-1.858-0.936-1.858-2.1
			c0-1.157,0.834-2.096,1.858-2.096c0.565,0,1.073,0.282,1.416,0.734v0.02h1.823v-2.719h-1.455v0.795
			c-0.301-0.347-0.639-0.604-1-0.771c-0.362-0.172-0.752-0.255-1.176-0.255c-0.635,0-1.258,0.188-1.871,0.567
			c-0.612,0.383-1.092,0.916-1.438,1.592c-0.345,0.679-0.513,1.39-0.513,2.131c0,0.746,0.168,1.465,0.521,2.141
			c0.351,0.68,0.845,1.211,1.479,1.592c0.64,0.381,1.291,0.571,1.962,0.571c0.846,0,1.616-0.271,2.313-0.81
			c0.689-0.541,1.182-1.256,1.459-2.156h-2.068L92.427,45.637L92.427,45.637z"/>
		<path fill="#06205D" d="M118.695,46.337c-0.227,0.123-0.459,0.185-0.688,0.185c-0.271,0-0.49-0.086-0.658-0.246
			c-0.162-0.161-0.242-0.395-0.242-0.689c0-0.27,0.055-0.634,0.191-0.814c0.135-0.168,0.453-0.416,0.807-0.535
			c0.363-0.119,0.979,0.009,1.41-0.075v1.698C119.384,46.048,118.93,46.219,118.695,46.337 M117.068,41.695
			c0.246-0.062,0.498-0.336,0.775-0.336c0.674,0,1.012,0.015,1.344,0.377c0.324,0.363,0.35,0.957,0.35,0.957
			c-0.967-0.075-1.736-0.284-2.744,0.041c-0.252,0.08-0.987,0.518-1.348,0.77c-0.199,0.143-0.402,0.619-0.576,0.923
			c-0.178,0.302-0.201,1.61-0.115,2.072c0.15,0.776,0.416,1.177,0.812,1.549c0.392,0.372,0.692,0.538,1.386,0.538
			c0.26,0,1.073,0.062,1.35-0.041c1.277-0.459,0.91-0.479,1.471-0.803l-0.027,0.602l0.082,0.098
			c0.502-0.027,1.021-0.043,1.559-0.043c0.562,0,1.218,0.016,1.951,0.043V46.58c-0.543-0.032-0.864-0.073-0.971-0.119
			c-0.074-0.036-0.121-0.107-0.148-0.209c-0.063-0.22-0.053,0.37-0.053-0.665c0-0.335-0.02-0.711,0-1.235
			c0.029-0.787,0.033-1.346,0.033-1.531c0-0.436-0.043-0.799-0.117-1.084c-0.084-0.287-0.229-0.557-0.443-0.807
			c-0.215-0.248-0.545-0.468-0.993-0.649c-0.449-0.185-1.021-0.277-1.718-0.277c-0.42,0-0.811-0.062-1.045,0
			c-0.172,0.047-0.885,0.133-1.312,0.351c-0.428,0.215-0.896,0.635-1.272,1.073L117.068,41.695z"/>
		<polygon fill="#06205D" points="81.142,40.262 84.585,40.262 84.585,46.66 85.464,46.66 85.464,48.395 81.142,48.395 
			81.142,46.66 82.244,46.66 82.244,41.995 81.142,41.995 		"/>
		<path fill="#06205D" d="M84.416,38.521c0-0.638-0.519-1.154-1.157-1.154c-0.641,0-1.155,0.518-1.155,1.154
			c0,0.636,0.514,1.151,1.155,1.151C83.897,39.674,84.416,39.159,84.416,38.521"/>
		<polygon fill="#06205D" points="65.634,10.947 63.263,10.947 57.284,28.44 51.75,28.44 46.093,10.947 43.553,10.947 43.553,7.651 
			53.271,7.651 53.271,10.947 51.581,10.947 54.661,22.956 58.071,10.947 56.071,10.947 56.071,7.651 65.634,7.651 		"/>
		<path fill="#06205D" d="M81.04,12.827v-1.763l4.686-2.5v4.263h2.064v3.066h-2.064v7.283c0,0.69,0.25,1.209,0.749,1.571
			c0.5,0.358,0.674,0.539,1.094,0.539h0.224v3.295h-2.064c-1.29,0-2.392-0.417-3.312-1.246c-0.912-0.833-1.374-1.822-1.374-2.982
			v-8.459H79.03v-3.066L81.04,12.827L81.04,12.827z"/>
		<path fill="#06205D" d="M119.688,12.838h6.942v2.705c0.621-0.801,1.388-1.411,2.3-1.832c0.905-0.42,2.18-0.711,3.813-0.873V17.4
			c-1.891,0.102-3.322,0.545-4.303,1.338c-0.984,0.789-1.475,1.868-1.475,3.234v3.135h1.838v3.312h-8.318v-3.312h1.85v-8.883h-2.646
			L119.688,12.838L119.688,12.838z"/>
		<path fill="#06205D" d="M154.585,24.491c-0.44,0.235-0.883,0.352-1.313,0.352c-0.519,0-0.937-0.16-1.254-0.472
			c-0.313-0.31-0.472-0.751-0.472-1.319c0-0.508,0.107-1.211,0.369-1.543c0.258-0.336,0.857-0.803,1.543-1.031
			c0.687-0.226,1.857,0.014,2.689-0.141v3.247C155.895,23.935,155.033,24.261,154.585,24.491 M151.475,15.624
			c0.543-0.408,1.121-0.645,1.479-0.646c1.293-0.002,1.93,0.031,2.563,0.719c0.623,0.691,0.666,1.841,0.666,1.841
			c-1.838-0.146-3.279-0.462-5.228,0.072c-1.09,0.296-1.967,0.901-2.576,1.47c-0.346,0.318-0.77,0.982-1.102,1.766
			c-0.27,0.615-0.389,3.066-0.211,3.956c0.281,1.486,0.787,2.244,1.535,2.956c0.746,0.715,1.322,1.031,2.646,1.031
			c0.5,0,2.051,0.116,2.576-0.076c2.43-0.88,1.729-0.918,2.795-1.543l-0.054,1.15l0.158,0.19c0.961-0.057,1.953-0.084,2.978-0.084
			c1.078,0,2.319,0.027,3.717,0.084v-3.551c-1.031-0.066-1.644-0.144-1.838-0.234c-0.148-0.066-0.246-0.199-0.289-0.4
			c-0.127-0.424-0.043,0.635-0.043-1.347c0-0.636-0.037-1.154,0-2.157c0.045-1.167,0-2.359,0-3.053c0-0.833-0.072-1.522-0.228-2.07
			c-0.147-0.545-0.435-1.057-0.84-1.539c-0.41-0.476-1.037-0.889-1.896-1.24c-0.858-0.35-1.951-0.529-3.274-0.529
			c-0.815,0-1.535-0.053-1.996-0.001c-0.897,0.106-1.638,0.253-2.502,0.665c-0.828,0.389-1.705,1.213-2.431,2.057L151.475,15.624z"
			/>
		<polygon fill="#06205D" points="68.419,12.885 74.979,12.885 74.979,25.108 76.665,25.108 76.665,28.42 68.419,28.42 
			68.419,25.108 70.517,25.108 70.517,16.197 68.419,16.197 		"/>
		<path fill="#06205D" d="M72.762,7.083c-1.264,0-2.291,1.025-2.291,2.291c0,1.261,1.027,2.287,2.291,2.287
			c1.264,0,2.287-1.026,2.287-2.287C75.049,8.108,74.026,7.083,72.762,7.083"/>
		<path fill="#06205D" d="M115.21,14.977c-1.446-1.588-3.176-2.385-5.194-2.385c-1.3,0-2.529,0.363-3.692,1.085
			c-1.169,0.726-2.078,1.738-2.73,3.039c-0.654,1.301-0.98,2.666-0.98,4.091c0,1.418,0.326,2.777,0.99,4.079
			c0.654,1.3,1.566,2.312,2.732,3.032c1.164,0.725,2.387,1.09,3.666,1.09c1.281,0,2.518-0.374,3.699-1.115
			c1.182-0.746,2.092-1.768,2.729-3.07c0.635-1.299,0.953-2.658,0.953-4.076C117.38,18.493,116.654,16.567,115.21,14.977
			 M109.873,24.777c-1.377,0-2.496-1.771-2.496-3.955c0-2.183,1.119-3.951,2.496-3.951s2.498,1.768,2.498,3.951
			C112.371,23.006,111.248,24.777,109.873,24.777"/>
		<path fill="#06205D" d="M92.137,12.827v-1.763l4.688-2.5v4.263h2.062v3.066h-2.062v7.283c0,0.69,0.244,1.209,0.744,1.571
			c0.5,0.358,0.672,0.539,1.094,0.539h0.224v3.295h-2.062c-1.293,0-2.402-0.417-3.312-1.246c-0.918-0.833-1.377-1.822-1.377-2.982
			v-8.459h-2.012v-3.066L92.137,12.827L92.137,12.827z"/>
		<polygon fill="#06205D" points="136.516,12.913 143.076,12.913 143.076,25.133 144.759,25.133 144.759,28.444 136.516,28.444 
			136.516,25.133 138.619,25.133 138.619,16.221 136.516,16.221 		"/>
		<path fill="#06205D" d="M142.479,9.27c0-1.215-0.987-2.207-2.207-2.207c-1.219,0-2.205,0.992-2.205,2.207
			c0,1.218,0.985,2.2,2.205,2.2S142.479,10.488,142.479,9.27"/>
		<path fill="#06205D" d="M24.086,50.881c-10.245,0-18.511-10.225-18.511-22.856c0-12.629,8.146-22.877,18.393-22.877
			c10.247,0,18.558,10.248,18.558,22.877c0,12.616-8.198,22.838-18.441,22.859l-0.033-0.69c9.811,0,17.764-9.924,17.764-22.162
			c0-12.239-7.953-22.164-17.764-22.164c-9.805,0-17.759,9.924-17.759,22.163c0,12.181,7.874,22.063,17.759,22.163L24.086,50.881z"
			/>
		<path fill="#06205D" d="M24.053,43.993c-6.393-0.119-11.424-7.222-11.424-15.967c0-8.816,5.119-15.965,11.433-15.965
			c6.315,0,11.43,7.148,11.43,15.965C35.492,36.85,30.365,43.993,24.053,43.993V43.35c5.848-0.054,10.75-6.894,10.75-15.324
			c0-8.461-4.865-15.322-10.741-15.322c-5.878,0-10.741,6.861-10.741,15.322c0,8.465,4.859,15.324,10.732,15.324V43.993z"/>
		<polygon fill="#06205D" points="28.354,46.256 28.996,45.971 28.3,45.188 		"/>
		<path fill="#06205D" d="M31.103,10.452c0.202-0.416-0.007-0.549-0.007-0.549c-0.197-0.164-0.684-0.398-0.684-0.398
			s-0.215,0.395-0.465,0.84c0.113,0.072,0.617,0.389,0.773,0.377C30.963,10.71,31.103,10.452,31.103,10.452"/>
		<path fill="#06205D" d="M25.275,10.393c0.277,0.022,0.405-0.075,0.581-0.303c0.172-0.229,0.201-0.61,0.232-1.039
			c0.039-0.431,0.039-0.751-0.097-1.002c-0.136-0.258-0.191-0.357-0.463-0.382c-0.284-0.027-0.412,0.075-0.583,0.304
			c-0.175,0.225-0.237,0.569-0.272,1.003c-0.038,0.431-0.027,0.756,0.104,1.009C24.911,10.217,25.028,10.358,25.275,10.393"/>
		<path fill="#06205D" d="M25.009,45.751c-0.25-0.05-0.792-0.019-0.792-0.019l0.01,0.966c0.222,0.003,0.72,0.034,0.851-0.044
			c0.205-0.127,0.205-0.426,0.205-0.426C25.256,45.77,25.009,45.751,25.009,45.751"/>
		<polygon fill="#06205D" points="10.523,30.312 9.5,30.035 9.585,30.721 		"/>
		<path fill="#06205D" d="M24.066,6.426c-9.45,0-17.114,9.666-17.114,21.588c0,11.809,7.629,21.408,17.101,21.587
			c9.456,0,17.129-9.666,17.129-21.587C41.182,16.092,33.52,6.426,24.066,6.426 M38.161,17.063l-2.072,2.038
			c-0.193,0.216-0.265,0.392-0.204,0.532l0.032,0.09l-0.591,0.298l-0.038-0.104c-0.24-0.597-0.459-1.137-0.747-1.69l-0.045-0.086
			l0.532-0.316l0.051,0.1c0.089,0.161,0.205,0.35,0.236,0.385l0.074-0.025l0.326-0.367l-0.42-0.805l-0.398,0.047l-0.068,0.026
			c-0.059,0.027-0.061,0.058-0.063,0.072c-0.004,0.031,0.037,0.107,0.066,0.162l0.077,0.158l-0.563,0.303l-0.047-0.09
			c-0.246-0.457-0.472-0.813-0.776-1.281l-0.052-0.079l0.516-0.372l0.059,0.087c0.125,0.181,0.379,0.302,0.65,0.302
			c0.029,0,0.063-0.004,0.092-0.006l2.678-0.484L38.161,17.063z M36.155,28.026c0,9.147-5.415,16.559-12.093,16.559
			c-6.715-0.192-12.097-7.533-12.097-16.559c0-9.142,5.417-16.561,12.097-16.561C30.74,11.465,36.155,18.884,36.155,28.026
			 M32.811,13.723l0.967-0.904c0.244-0.236,0.283-0.334,0.287-0.361c0-0.033-0.086-0.193-0.211-0.341l-0.066-0.077l0.445-0.397
			l0.071,0.067c0.44,0.449,0.917,0.949,1.399,1.571l0.059,0.078l-0.457,0.422l-0.065-0.069c-0.124-0.133-0.286-0.229-0.33-0.231
			c-0.04,0.004-0.139,0.041-0.372,0.26l-0.967,0.902c-0.247,0.232-0.283,0.328-0.283,0.356c-0.002,0.036,0.071,0.173,0.216,0.332
			l0.063,0.079l-0.503,0.453l-0.068-0.088c-0.424-0.565-0.878-1.096-1.353-1.569L31.57,14.13l0.476-0.459l0.071,0.074
			c0.149,0.148,0.29,0.229,0.327,0.231C32.471,13.974,32.569,13.946,32.811,13.723 M27.799,10.901l0.086,0.036
			c0.15,0.06,0.276,0.093,0.355,0.093c0.046,0,0.07-0.012,0.089-0.016c0.021-0.014,0.102-0.072,0.264-0.367l0.624-1.167
			c0.17-0.306,0.17-0.406,0.166-0.428c-0.011-0.061-0.078-0.124-0.19-0.192l-0.084-0.053l0.29-0.542l0.086,0.042
			c0.589,0.257,1.164,0.563,1.724,0.903c0.222,0.123,0.771,0.447,0.96,0.803c0.15,0.281,0.145,0.58-0.023,0.884
			c-0.212,0.401-0.51,0.488-0.723,0.488c-0.027,0-0.048-0.003-0.078-0.003c0.094,0.23,0.009,0.512-0.076,0.671l-0.246,0.438
			c-0.025,0.028-0.071,0.088-0.021,0.125h0.011c0.036,0,0.069-0.033,0.082-0.049l0.23-0.361l0.377,0.268l-0.035,0.08
			c-0.109,0.232-0.257,0.416-0.266,0.42c-0.182,0.159-0.39,0.236-0.607,0.236l-0.045-0.002c-0.507-0.019-0.891-0.437-0.894-0.972
			c-0.002-0.229,0.09-0.339,0.109-0.357c0,0,0.084-0.158,0.272-0.475c0.047-0.08,0.063-0.149,0.047-0.193
			c-0.021-0.039-0.063-0.053-0.063-0.053l-0.446-0.266c-0.125,0.234-0.349,0.668-0.368,0.736c0.008,0.019,0.088,0.086,0.359,0.291
			l0.074,0.053l-0.299,0.566l-0.094-0.057c-0.516-0.333-1.139-0.703-1.838-0.976l-0.114-0.045L27.799,10.901z M24.13,7.542
			c0.335-0.276,0.745-0.42,1.22-0.42c0.068,0,0.142,0.006,0.219,0.012c0.568,0.047,1.029,0.265,1.352,0.643
			c0.33,0.377,0.476,0.856,0.428,1.42c-0.043,0.562-0.264,1.014-0.65,1.332c-0.33,0.272-0.76,0.414-1.25,0.414
			c-0.07,0-0.144-0.004-0.218-0.009c-0.555-0.051-0.998-0.267-1.322-0.639c-0.327-0.383-0.47-0.863-0.425-1.42
			C23.528,8.309,23.745,7.864,24.13,7.542 M18.614,8.266c1.057-0.469,2.142-0.804,3.239-0.99l0.095-0.02l0.365,1.551l-0.611,0.185
			L21.67,8.893c-0.125-0.406-0.291-0.622-0.49-0.622c-0.064,0-0.123,0.028-0.158,0.051l0.397,1.713
			c0.095,0.315,0.16,0.395,0.183,0.415c0.005,0,0.023,0.004,0.067,0.004c0.076,0,0.193-0.017,0.313-0.045l0.093-0.024L22.25,11
			l-0.113,0.027c-0.652,0.129-1.307,0.332-1.949,0.611l-0.112,0.047l-0.173-0.629l0.101-0.027c0.131-0.04,0.351-0.194,0.378-0.247
			c0.009-0.029,0.026-0.127-0.063-0.451l-0.447-1.69c-0.079,0.011-0.181,0.036-0.248,0.127c-0.119,0.138-0.157,0.387-0.111,0.72
			l0.011,0.084L18.95,9.778l-0.414-1.472L18.614,8.266z M14.256,11.226c0.853-0.808,1.766-1.509,2.711-2.085l0.09-0.055l0.839,1.324
			l-0.508,0.39l-0.06-0.081c-0.222-0.281-0.419-0.427-0.585-0.427c-0.111,0-0.188,0.067-0.229,0.117l0.973,1.466
			c0.197,0.271,0.288,0.32,0.314,0.326c0.043-0.002,0.18-0.061,0.34-0.173l0.086-0.056l0.309,0.431l0.057,0.102L18.5,12.55
			c-0.555,0.365-1.094,0.79-1.616,1.266l-0.059,0.052l-0.068-0.048l-0.337-0.45l0.08-0.063c0.113-0.09,0.264-0.313,0.273-0.369
			c0-0.016-0.016-0.113-0.219-0.4l-1.006-1.426c-0.058,0.029-0.137,0.085-0.182,0.188c-0.075,0.17-0.029,0.425,0.137,0.729
			l0.045,0.087l-0.516,0.335l-0.843-1.163L14.256,11.226z M11.454,14.62c0.393-0.598,0.804-1.169,1.236-1.691l0.076-0.097
			l0.08,0.095l0.409,0.301l-0.059,0.085c-0.183,0.259-0.175,0.34-0.175,0.34c0.001,0.024,0.053,0.12,0.319,0.319l1.064,0.8
			c0.273,0.206,0.377,0.22,0.403,0.22c0.042-0.003,0.208-0.107,0.315-0.235l0.063-0.077l0.505,0.379l-0.069,0.089
			c-0.428,0.514-0.84,1.082-1.224,1.682l-0.061,0.094l-0.506-0.377l0.059-0.083c0.098-0.146,0.143-0.3,0.137-0.341
			c-0.012-0.028-0.06-0.121-0.327-0.32l-1.061-0.797c-0.266-0.199-0.368-0.222-0.4-0.222c-0.042,0-0.172,0.084-0.278,0.212
			l-0.061,0.074l-0.494-0.37L11.454,14.62z M9.118,19.377c0.213-0.619,0.465-1.242,0.741-1.843l0.036-0.082l0.082,0.026l0.484,0.209
			l-0.033,0.09c-0.066,0.197-0.08,0.273-0.074,0.305c0.038,0.042,0.059,0.05,0.143,0.058l0.071,0.002l1.473,0.199l-1.112-0.947
			c-0.104-0.092-0.141-0.117-0.15-0.122c-0.066,0.005-0.113,0.044-0.223,0.235l-0.046,0.088l-0.463-0.208l-0.061-0.053l0.003-0.094
			c0.215-0.447,0.522-1.105,0.771-1.55l0.508,0.364l-0.022,0.087c-0.044,0.138-0.054,0.179-0.035,0.263
			c0.028,0.1,0.083,0.194,0.171,0.281l2.063,1.852l-0.031,0.072c-0.153,0.313-0.307,0.674-0.442,1l-0.031,0.073l-2.712-0.358
			c-0.177,0-0.27,0.022-0.331,0.053c-0.074,0.04-0.145,0.126-0.22,0.248l-0.05,0.085L9.08,19.465L9.118,19.377z M8.047,32.62
			c-0.109-0.604-0.195-1.239-0.26-1.897l-0.013-0.097l0.592-0.067l0.013,0.106c0.011,0.147,0.077,0.384,0.106,0.427l0.002-0.007
			l0.131,0.007l0.438-0.218l-0.087-0.895L8.56,29.887l-0.073-0.003c-0.079,0.009-0.09,0.034-0.097,0.048
			c-0.011,0.021-0.034,0.083-0.023,0.244l0.009,0.102L7.759,30.34l-0.01-0.107c-0.045-0.543-0.078-1.016-0.09-1.533l-0.004-0.096
			l0.542-0.059l0.022,0.086c0.043,0.197,0.231,0.435,0.533,0.527l2.66,0.574l0.018,0.147c0.019,0.284,0.04,0.604,0.108,1.095
			l0.008,0.076L8.95,32.111c-0.246,0.123-0.354,0.255-0.357,0.414v0.082l-0.53,0.119L8.047,32.62z M8.78,35.857
			c-0.063-0.176-0.109-0.368-0.129-0.561c-0.023-0.172-0.01-0.441,0.009-0.624l-0.235-0.056l-0.156-0.522l1.277-0.622l0.26,0.564
			l-0.041,0.049c-0.234,0.287-0.326,0.398-0.394,0.672c-0.065,0.273-0.06,0.533,0.029,0.77c0.057,0.158,0.138,0.273,0.249,0.354
			c0.061,0.042,0.122,0.062,0.175,0.062c0.032,0,0.059-0.004,0.089-0.02c0.044-0.018,0.176-0.133,0.09-0.854l-0.025-0.174
			c-0.031-0.275-0.052-0.506-0.062-0.674c-0.008-0.175-0.003-0.307,0.017-0.392c0.036-0.183,0.11-0.34,0.213-0.478
			c0.109-0.136,0.247-0.233,0.41-0.304c0.145-0.065,0.288-0.094,0.428-0.094c0.179,0,0.352,0.049,0.52,0.142
			c0.298,0.164,0.523,0.449,0.664,0.838c0.035,0.092,0.143,0.403,0.154,0.598l0.013,0.097c0.015,0.146,0.034,0.334,0.03,0.479
			l0.176,0.057l0.164,0.477l-1.188,0.535l-0.19-0.541l0.036-0.045c0.163-0.219,0.253-0.342,0.293-0.559
			c0.047-0.205-0.021-0.523-0.1-0.754c-0.053-0.141-0.122-0.24-0.197-0.295c-0.044-0.032-0.084-0.047-0.121-0.047
			c-0.024,0-0.047,0-0.07,0.015c-0.029,0.011-0.164,0.118-0.047,0.966l0.026,0.215c0.063,0.488,0.05,0.842-0.039,1.087
			c-0.093,0.249-0.286,0.438-0.571,0.562c-0.174,0.073-0.348,0.11-0.516,0.11c-0.18,0-0.361-0.043-0.528-0.136
			C9.175,36.588,8.934,36.288,8.78,35.857 M10.571,39.968c-0.102-0.149-0.189-0.327-0.26-0.508c-0.063-0.166-0.115-0.431-0.139-0.61
			l-0.24,0.002l-0.273-0.476l1.091-0.908l0.388,0.486l-0.023,0.063c-0.157,0.326-0.225,0.467-0.229,0.74
			c0,0.284,0.072,0.533,0.21,0.742c0.091,0.143,0.199,0.229,0.325,0.282c0.045,0.019,0.092,0.028,0.135,0.028
			c0.051,0,0.093-0.017,0.129-0.043c0.04-0.026,0.146-0.172-0.113-0.854L11.51,38.75c-0.101-0.264-0.17-0.477-0.217-0.639
			c-0.047-0.163-0.076-0.297-0.083-0.387c-0.002-0.183,0.031-0.355,0.102-0.51c0.073-0.156,0.181-0.293,0.324-0.398
			c0.196-0.145,0.406-0.219,0.624-0.219c0.105,0,0.205,0.019,0.308,0.049c0.33,0.088,0.612,0.309,0.844,0.652
			c0.068,0.107,0.231,0.365,0.288,0.542l0.036,0.104c0.047,0.137,0.113,0.306,0.137,0.447l0.186,0.015l0.274,0.422l-1.026,0.803
			l-0.313-0.483L13.02,39.1c0.105-0.25,0.162-0.397,0.157-0.615c-0.01-0.211-0.152-0.506-0.283-0.701
			c-0.079-0.127-0.171-0.213-0.259-0.248c-0.036-0.016-0.066-0.021-0.093-0.021c-0.037,0-0.073,0.012-0.102,0.036
			c-0.023,0.019-0.129,0.154,0.186,0.953l0.063,0.166c0.186,0.494,0.26,0.847,0.227,1.103c-0.032,0.267-0.173,0.496-0.416,0.678
			c-0.238,0.173-0.482,0.263-0.738,0.263c-0.094,0-0.192-0.01-0.286-0.032C11.125,40.586,10.817,40.348,10.571,39.968
			 M13.432,43.018l0.059,0.084l-0.486,0.362l-0.066-0.054c-0.477-0.424-1.256-1.639-1.287-1.691l-0.049-0.08l0.495-0.371
			l0.056,0.073c0.114,0.142,0.252,0.229,0.285,0.232c0.041,0,0.143-0.021,0.403-0.218l1.066-0.801
			c0.275-0.199,0.317-0.298,0.323-0.32c0.011-0.039-0.031-0.19-0.124-0.328l-0.062-0.086l0.535-0.37l0.054,0.084
			c0.352,0.528,0.746,1.028,1.266,1.614l0.07,0.084l-0.547,0.423l-0.063-0.08c-0.197-0.25-0.273-0.263-0.273-0.263
			c-0.031,0-0.14,0.019-0.403,0.213l-1.063,0.8c-0.275,0.204-0.316,0.297-0.321,0.323C13.29,42.691,13.341,42.884,13.432,43.018
			 M17.46,43.668c-0.036-0.197-0.16-0.369-0.354-0.496c-0.108-0.07-0.19-0.105-0.283-0.105c-0.074,0-0.162,0.022-0.292,0.072
			c-0.245,0.096-0.439,0.344-0.666,0.678c-0.193,0.291-0.279,0.601-0.26,0.897c0.001,0.009,0.059,0.343,0.521,0.558
			c0.059,0.027,0.117,0.039,0.178,0.039c0.304,0,0.596-0.341,0.681-0.478l0.054-0.087l0.56,0.369l-0.042,0.087
			c-0.215,0.376-0.702,0.792-1.187,0.819c-0.057,0.002-0.104,0.008-0.155,0.008c-0.351,0-0.634-0.084-0.893-0.254
			c-0.476-0.315-0.774-0.726-0.872-1.215c-0.102-0.485,0.009-0.979,0.322-1.459c0.305-0.457,0.705-0.74,1.189-0.841
			c0.129-0.024,0.25-0.038,0.367-0.038c0.359,0,0.715,0.114,1.052,0.338c0.125,0.084,0.233,0.183,0.326,0.289
			c0.089,0.092,0.159,0.198,0.229,0.314l0.131-0.045l0.104,0.074c0.109,0.08,0.18,0.133,0.311,0.22l0.082,0.054l-0.749,1.256
			l-0.612-0.427l0.071-0.083C17.509,43.936,17.485,43.82,17.46,43.668 M22.124,45.654l-0.097-0.034
			c-0.036-0.015-0.066-0.022-0.103-0.022c-0.09,0-0.154,0.032-0.176,0.049c-0.03,0.018-0.107,0.09-0.241,0.418L21.093,47.1
			c-0.194,0.498-0.456,0.821-0.774,0.963c-0.131,0.062-0.281,0.09-0.447,0.09c-0.217,0-0.474-0.055-0.75-0.166
			c-0.471-0.19-0.789-0.438-0.941-0.736c-0.16-0.309-0.16-0.671,0.004-1.075l0.497-1.239c0.137-0.345,0.128-0.453,0.122-0.478
			c-0.018-0.052-0.084-0.106-0.205-0.158l-0.096-0.038l0.316-0.646l0.093,0.057c0.496,0.301,0.984,0.539,1.533,0.766l0.102,0.035
			l-0.254,0.551l-0.09-0.029c-0.069-0.025-0.131-0.042-0.179-0.042c-0.036,0-0.064,0.013-0.085,0.022
			C19.89,45,19.83,45.068,19.717,45.34l-0.491,1.229c-0.079,0.199-0.095,0.354-0.038,0.48c0.047,0.125,0.155,0.221,0.33,0.297
			c0.113,0.045,0.221,0.062,0.314,0.062c0.083,0,0.15-0.012,0.217-0.04c0.152-0.069,0.273-0.222,0.363-0.45l0.446-1.115
			c0.071-0.173,0.136-0.353,0.114-0.425c-0.021-0.078-0.114-0.131-0.19-0.163l-0.095-0.04l0.22-0.571l0.097,0.03
			c0.137,0.048,0.264,0.095,0.393,0.146c0.278,0.108,0.545,0.206,0.83,0.262l0.117,0.024L22.124,45.654z M26.754,48.301
			c-0.09,0.238-0.254,0.416-0.467,0.52c-0.125,0.064-0.26,0.096-0.398,0.096c-0.349,0-0.672-0.196-0.852-0.518
			c-0.107-0.192-0.084-0.34-0.076-0.362c0,0,0-0.187,0.005-0.552c0-0.125-0.029-0.17-0.042-0.189l-0.081-0.018l-0.512-0.012
			c-0.01,0.445,0,0.812,0.018,0.875c0.029,0.031,0.142,0.064,0.412,0.106l0.09,0.013l0.001,0.618l-0.094,0.008
			c-0.208,0.02-0.426,0.021-0.641,0.021c-0.752,0-1.451-0.078-1.451-0.078l-0.1-0.011l-0.003-0.613l0.089-0.014
			c0.301-0.043,0.423-0.078,0.463-0.127c0.017-0.022,0.059-0.112,0.059-0.45l-0.011-1.321c-0.004-0.343-0.048-0.438-0.067-0.462
			c-0.033-0.042-0.122-0.065-0.25-0.071l-0.107-0.002v-0.626l2.075-0.017c0.583,0,0.963,0.07,1.189,0.215
			c0.265,0.171,0.399,0.439,0.399,0.787c0.005,0.393-0.158,0.671-0.47,0.809c0.196,0.162,0.257,0.449,0.257,0.626l-0.006,0.505
			c-0.005,0.041-0.013,0.111,0.041,0.119h0.004c0.035,0,0.055-0.061,0.057-0.086l0.025-0.425l0.46,0.046l0.007,0.09
			C26.792,48.057,26.754,48.292,26.754,48.301 M30.675,47.107c-0.363,0.194-0.73,0.396-1.114,0.597l-0.095,0.048l-0.231-0.503
			l0.043-0.074l0.068-0.065c0.092-0.041,0.296-0.183,0.324-0.215l-0.008-0.076l-0.059-0.09L29.3,46.415l-0.814,0.354l0.029,0.434
			l0.021,0.074c0.016,0.037,0.037,0.06,0.069,0.064l0.013,0.006c0.07,0,0.138-0.027,0.229-0.061l0.093-0.039l0.256,0.604
			L29.1,47.893c-0.453,0.191-0.816,0.31-1.112,0.401c-0.124,0.04-0.237,0.074-0.335,0.113l-0.1,0.032l-0.18-0.524l0.071-0.042
			c0.202-0.129,0.321-0.363,0.315-0.631l-0.18-2.754l0.072-0.03c0.273-0.114,0.472-0.204,0.952-0.438l0.068-0.035l1.824,2.145
			c0.147,0.152,0.283,0.227,0.402,0.227c0.033,0,0.07-0.006,0.104-0.016l0.082-0.025l0.229,0.445L30.675,47.107z M34.496,44.13
			c-0.687,0.724-1.011,1.149-1.794,1.728l-0.365,0.234l-0.133,0.073l-0.069,0.026l-0.042-0.078l-0.017,0.016l-0.403-0.39v-0.042
			c-0.008-0.987-0.031-2.497-0.059-3.006l-0.5,0.47c-0.122,0.155-0.256,0.437,0.137,0.974l0.055,0.077l-0.5,0.44l-1.104-1.278
			l0.091-0.065c0.787-0.586,1.543-1.291,2.234-2.093l0.075-0.09l0.657,0.733l0.072,2.887c0,0,0.122-0.094,0.137-0.107
			c0.161-0.145,0.372-0.354,0.415-0.576c0.037-0.201-0.045-0.432-0.152-0.705l-0.025-0.062l0.04-0.062l0.341-0.351l0.974,1.179
			L34.496,44.13z M36.747,41.27c-0.389,0.599-0.78,1.137-1.275,1.74l-0.063,0.08l-0.511-0.381l0.063-0.084
			c0.155-0.219,0.182-0.328,0.18-0.348c-0.009-0.031-0.058-0.127-0.337-0.332l-1.055-0.906c-0.271-0.2-0.381-0.223-0.412-0.223
			c-0.049,0.006-0.226,0.109-0.332,0.25l-0.066,0.072l-0.518-0.384l0.066-0.083c0.742-0.904,1.242-1.764,1.246-1.771l0.063-0.106
			l0.529,0.442l-0.055,0.08c-0.096,0.142-0.138,0.293-0.127,0.345c0.024,0.075,0.081,0.26,0.276,0.414l1.027,0.832
			c0.236,0.176,0.42,0.256,0.469,0.256c0.042-0.006,0.211-0.127,0.331-0.271l0.056-0.08l0.491,0.375L36.747,41.27z M38.257,38.814
			l-0.083-0.047L38.257,38.814c-0.296,0.523-0.675,0.854-1.153,1.004c-0.488,0.146-0.986,0.086-1.492-0.194
			c-0.51-0.279-0.83-0.658-0.971-1.151c-0.137-0.488-0.065-0.998,0.218-1.513c0.283-0.521,0.667-0.854,1.157-1.007
			c0.482-0.146,0.978-0.081,1.49,0.193c0.502,0.274,0.83,0.66,0.965,1.152C38.613,37.793,38.54,38.297,38.257,38.814 M39.902,33.32
			l-2.711,0.923l1.237,0.28c0.158,0.041,0.285,0.058,0.371,0.058h0.005c0.055,0,0.083-0.008,0.083-0.008
			c0.074-0.037,0.113-0.146,0.141-0.229l0.023-0.096l0.604,0.141l-0.336,1.469l-0.61-0.144l0.02-0.098
			c0.021-0.127,0.012-0.216-0.026-0.265c-0.02-0.028-0.1-0.091-0.438-0.17l-1.31-0.298c-0.242-0.059-0.431-0.09-0.533-0.09
			c-0.105,0.031-0.149,0.111-0.184,0.231l-0.028,0.098l-0.62-0.145l0.107-0.312c0.132-0.399,0.263-0.791,0.375-1.203l0.016-0.054
			l1.931-0.646l-0.556-0.133c-0.166-0.04-0.295-0.059-0.381-0.059c-0.059,0-0.082,0.01-0.09,0.016
			c-0.053,0.021-0.101,0.102-0.133,0.227l-0.025,0.093l-0.599-0.142l0.014-0.103l0.067-0.291c0.073-0.32,0.149-0.644,0.199-0.972
			l0.019-0.106l0.648,0.149l-0.018,0.097c-0.022,0.127-0.019,0.22,0.018,0.265c0.019,0.016,0.094,0.086,0.44,0.164l2.461,0.571
			L39.902,33.32z M40.25,31.17l-0.626-0.047l0.007-0.105c0.017-0.262-0.016-0.365-0.031-0.381c-0.012-0.012-0.101-0.07-0.445-0.102
			l-1.318-0.107c-0.078-0.006-0.146-0.01-0.207-0.01c-0.178,0-0.239,0.027-0.25,0.037c-0.041,0.029-0.127,0.207-0.144,0.363
			l-0.007,0.104L36.7,30.88l-0.113-0.042v-0.083c0.088-0.627,0.14-1.288,0.164-2.076l0.006-0.107l0.623,0.051l-0.002,0.098
			c-0.008,0.177,0.038,0.331,0.063,0.364c0.024,0.021,0.111,0.073,0.444,0.101l1.326,0.111c0.076,0.002,0.147,0.01,0.208,0.01
			c0.182,0,0.229-0.029,0.246-0.039c0.035-0.023,0.1-0.167,0.123-0.33l0.013-0.096l0.615,0.049l0.017,0.1
			c-0.024,0.699-0.086,1.34-0.174,2.086L40.25,31.17z"/>
		<polygon fill="#06205D" points="36.87,16.835 35.813,16.968 36.137,17.588 		"/>
		<path fill="#06205D" d="M37.7,37.914c-0.139-0.255-0.472-0.436-0.855-0.641c-0.375-0.207-0.669-0.34-0.949-0.317
			c-0.289,0.022-0.403,0.028-0.538,0.278c-0.136,0.244-0.098,0.399,0.038,0.649c0.137,0.257,0.424,0.448,0.809,0.658
			c0.378,0.209,0.678,0.335,0.963,0.312c0.271-0.022,0.442-0.063,0.586-0.315C37.89,38.293,37.833,38.163,37.7,37.914"/>
		<path fill="#06205D" d="M21.038,40.838v-0.197c0.122,0,0.205-0.016,0.246-0.037c0.042-0.03,0.063-0.084,0.063-0.147v-0.798
			c0-0.072-0.016-0.126-0.054-0.151c-0.031-0.022-0.119-0.032-0.255-0.038v-0.18c0.124-0.005,0.229-0.014,0.321-0.027
			c0.095-0.013,0.175-0.035,0.25-0.066h0.16v1.263c0,0.065,0.019,0.117,0.062,0.149c0.041,0.021,0.128,0.037,0.258,0.037v0.195
			L21.038,40.838L21.038,40.838z"/>
		<path fill="#06205D" d="M23.52,40.141c-0.076,0.047-0.146,0.08-0.219,0.104c-0.066,0.021-0.142,0.03-0.23,0.03
			c-0.179,0-0.326-0.055-0.441-0.148c-0.113-0.104-0.173-0.23-0.173-0.387c0-0.176,0.064-0.313,0.206-0.426
			c0.136-0.097,0.318-0.154,0.549-0.154c0.232,0,0.416,0.072,0.547,0.217c0.126,0.145,0.193,0.344,0.193,0.604
			c0,0.277-0.07,0.504-0.217,0.652c-0.147,0.156-0.355,0.233-0.635,0.233c-0.162,0-0.295-0.032-0.398-0.097
			c-0.109-0.064-0.167-0.143-0.167-0.228c0-0.06,0.021-0.104,0.054-0.134c0.039-0.032,0.086-0.051,0.143-0.051
			c0.055,0,0.103,0.017,0.127,0.039c0.031,0.026,0.063,0.084,0.08,0.162c0.012,0.045,0.028,0.072,0.052,0.084
			c0.019,0.019,0.061,0.022,0.117,0.022c0.126,0,0.224-0.051,0.3-0.14c0.072-0.092,0.113-0.215,0.113-0.377L23.52,40.141
			L23.52,40.141z M23.499,39.723c0-0.105-0.027-0.191-0.078-0.244c-0.053-0.062-0.123-0.09-0.213-0.09
			c-0.099,0-0.167,0.028-0.224,0.09c-0.056,0.053-0.081,0.136-0.081,0.237c0,0.103,0.025,0.187,0.078,0.244
			c0.055,0.058,0.126,0.09,0.221,0.09c0.094,0,0.164-0.032,0.219-0.088C23.471,39.905,23.499,39.823,23.499,39.723"/>
		<path fill="#06205D" d="M24.301,40.42c0.158-0.217,0.535-0.418,0.535-0.418c0.333-0.171,0.328-0.367,0.328-0.367
			c0-0.084-0.023-0.146-0.071-0.191c-0.047-0.049-0.114-0.07-0.197-0.07c-0.072,0-0.134,0.009-0.177,0.043
			c-0.052,0.027-0.072,0.062-0.072,0.1c0,0.008,0.008,0.021,0.028,0.062c0.025,0.033,0.034,0.072,0.034,0.111
			c0,0.055-0.015,0.094-0.056,0.129s-0.088,0.052-0.15,0.052c-0.068,0-0.123-0.021-0.162-0.062
			c-0.039-0.037-0.057-0.093-0.057-0.164c0-0.133,0.066-0.242,0.19-0.338c0.133-0.091,0.296-0.138,0.493-0.138
			c0.204,0,0.378,0.046,0.5,0.138c0.127,0.092,0.188,0.211,0.188,0.362c0,0.14-0.061,0.271-0.196,0.397c0,0-0.153,0.162-0.534,0.219
			c0,0-0.095,0.021-0.124,0.091c0,0,0.332,0.144,0.497,0.11c0,0,0.127-0.021,0.174-0.16c0,0,0.043-0.104,0.127-0.098
			c0.057,0.002,0.168,0.049,0.119,0.254c0,0-0.022,0.434-0.546,0.404c0,0-0.18-0.043-0.436-0.16c0,0-0.113-0.068-0.248,0.068
			c0,0-0.266,0.127-0.289-0.09C24.198,40.706,24.198,40.577,24.301,40.42"/>
		<path fill="#06205D" d="M26.107,40.838v-0.197c0.122,0,0.204-0.016,0.245-0.037c0.037-0.03,0.056-0.084,0.056-0.147v-0.798
			c0-0.072-0.009-0.126-0.045-0.151c-0.032-0.022-0.118-0.032-0.256-0.038v-0.18c0.122-0.005,0.229-0.014,0.318-0.027
			c0.095-0.013,0.181-0.035,0.253-0.066h0.156v1.263c0,0.065,0.02,0.117,0.063,0.149c0.04,0.021,0.129,0.037,0.258,0.037v0.195
			L26.107,40.838L26.107,40.838z"/>
		<path fill="#06205D" d="M23.651,26.053c-0.027-0.211-0.107-0.094-0.107-0.094c-0.262,0.566-0.334,1.518-0.334,1.518
			c-0.076,0.233,0.332,0.17,0.332,0.17c0.263-0.066,0.161-0.206,0.161-0.206C23.474,27.059,23.651,26.053,23.651,26.053"/>
		<path fill="#06205D" d="M29.892,16.132c0.011-0.298,0.473-0.487,0.473-0.487c0.352-0.08,0.284-0.25,0.284-0.25
			c0.07-0.311,0.486-0.427,0.486-0.427c0.776-0.387,0.377-0.772,0.377-0.772c-0.218-0.219-1.344,0.512-1.344,0.512
			c-0.381,0.369-0.752,0.418-0.752,0.418c-0.574,0.102-1.246,0.588-1.246,0.588c-0.854,0.474-1.648,1.337-1.648,1.337
			c-0.968,1.245-1.202,2.039-1.202,2.039l-0.057-0.178c0.134-0.144,0.057-0.26,0.057-0.26c-0.117-0.094-0.184-0.178-0.219-0.236
			c-0.012-0.129-0.108-0.113-0.108-0.113c0-0.422-0.221-0.381-0.221-0.381c-0.214,0-0.273-0.056-0.273-0.056
			c-0.203-0.219-0.383,0.107-0.383,0.107c-0.21,0.09-0.354-0.016-0.354-0.016c-0.178-0.091-0.293,0.057-0.293,0.057
			c-0.112,0.129-0.123,0.107-0.123,0.107c-0.265,0.113-0.157,0.449-0.157,0.449c-0.362,0.121-0.283,0.363-0.283,0.363
			c-0.005,0.196,0.118,0.244,0.118,0.244l0.116,0.055l-0.129,0.322c-0.057,0.264,0.31,0.43,0.31,0.43s0.071,0.063,0.127,0.191
			c0,0,0.045,0.312,0.279,0.312c0,0,0.03,0.157-0.222,0.241c-0.142,0.057-0.297,0.164-0.297,0.164
			c-0.165-0.105-0.372-0.096-0.372-0.096s-0.357-0.302-0.494-1.158c-0.069-0.409-0.178-0.572-0.178-0.572
			c-0.611-0.977-1.069-1.213-1.521-1.563c0,0-1.248-0.671-2.294-1.057c-0.318-0.112-1.281-0.3-1.281-0.3s-1.09-0.157-1.643-0.607
			c0,0-0.186-0.111-0.101,0.133c0,0,0.097,0.141,0.088,0.283c0,0-0.252-0.032,0,0.174c0,0,0.043,0.033,0.062,0.197
			c0,0,0.021,0.251,0.351,0.324c0,0,0.027,0.008,0.086,0.275c0,0-0.012,0.295,0.51,0.405c0,0,0.156,0.027,0.146,0.279
			c0,0,0.098,0.162,0.388,0.274c0,0,0.273,0.071,0.323,0.317c0,0,0.101,0.17,0.253,0.229c0,0,0.174,0.021,0.169,0.29
			c0,0,0.021,0.235,0.416,0.458c0,0,0.128,0.093,0.202,0.322c0,0,0.011,0.109,0.235,0.154c0,0,0.235,0.119,0.262,0.27
			c0,0,0.03,0.174,0.155,0.283c0,0,0.096,0.065,0.101,0.157c0,0,0.126,0.218,0.209,0.28l0.021,0.251c0,0-0.398-0.05-1.258,0.215
			c0,0-0.021-0.004-0.399,0.063c0,0-0.335,0.078-0.457,0.111c-0.14,0.076-0.516,0.139-0.516,0.139
			c-0.377,0.026-0.647,0.218-0.647,0.218l-0.156,0.218c-0.155,0.215-0.279,0.061-0.279,0.061c-0.172-0.121-0.229,0-0.229,0
			c-0.149,0.045-0.279-0.132-0.279-0.132c-0.108-0.09-0.117,0.058-0.117,0.058c-0.198-0.153-0.225-0.061-0.225-0.061
			c-0.031,0.071,0.167,0.295,0.167,0.295c0.039,0.094-0.058,0.125-0.058,0.125c-0.265,0.057-0.093,0.252-0.093,0.252
			c0.109,0.092,0.131,0.141,0.131,0.141c0.066,0.154,0.203,0.076,0.203,0.076c0.175-0.005,0.231,0.042,0.231,0.042
			c0.183,0.009,0.145,0.055,0.145,0.055c-0.033,0.095,0.008,0.078,0.008,0.078c0.15,0.04,0.359-0.14,0.359-0.14
			c0.15-0.17,0.226-0.133,0.226-0.133c0.104,0.071,0.197,0.008,0.197,0.008c0.136-0.066,0.242-0.05,0.242-0.05
			c0.252,0.103,0.3-0.041,0.3-0.041c0.045-0.08,0.082-0.064,0.082-0.064c0.264,0.046,0.366-0.178,0.366-0.178
			c0.094-0.177,0.102-0.137,0.102-0.137c0.166-0.091,0.215-0.17,0.215-0.17c0.006-0.082,0.07-0.119,0.07-0.119
			c0.1,0.006,0.134-0.01,0.134-0.01c0.116-0.108,0.167-0.137,0.167-0.137c0.199,0.016,0.418,0.016,0.418,0.016
			c0.447,0.014,0.847,0.042,0.847,0.042c0.454,0.073,0.908-0.112,0.908-0.112c0.033,0.266,0.214,0.208,0.214,0.208
			c0.053,0.268,0.343,0.173,0.343,0.173c0.056,0.187,0.255,0.076,0.255,0.076c0.041-0.02,0.154-0.076,0.154-0.076
			c0.193-0.049,0.264-0.173,0.264-0.173l0.496,0.041c0,0,0.453,0,0.436,0.543l0.083,0.602c0,0,0.025,0.084-0.02,0.177
			c0,0-0.076,0.129-0.122,0.257c-0.061,0.274-0.104,0.556-0.104,0.556c-0.036,0.387,0.347,0.313,0.347,0.313
			c0.174-0.023,0.21,0.121,0.21,0.121s-0.519,1.105-0.798,1.525c0,0-0.375,0.123-0.233,0.506c0,0,0.257,0.377,0,0.749
			c0,0-0.16,0.28-0.033,0.628c0,0,0.041,0.183,0.137,0.125c0,0,0.109-0.069,0.146,0.079c0,0,0.151,0.174,0.254,0.238
			c0,0,0.18,0.086,0.033,0.378c0,0-0.204,0.298-0.059,0.64c0,0,0.051,0.072,0.025,0.206c0,0-0.124,0.188,0.071,0.533
			c0,0,0.268,0.236,0.132,1.199c0,0,0.004,0.192-0.154,0.509c-0.009,0.014-0.012,0.021-0.016,0.031c-0.18,0.332-0.039,0.511,0,0.807
			c0,0,0.104,0.206,0.472,0.178c0.366-0.028,0.273-0.041,0.273-0.041c0.375-0.114,0.956-0.125,0.956-0.125
			c0.077,0.529,0.064,1.121,0.064,1.121l-0.245,0.274c-0.253,0.229-0.194,0.461-0.194,0.461c0.053,0.245,0.298,0.212,0.298,0.212
			c-0.086,0.742-0.256,0.986-0.256,0.986c-0.636,0.189-0.989,0.783-0.989,1.479c0,0.855,0.69,1.545,1.543,1.545
			s1.542-0.688,1.542-1.545c0-0.725-0.466-1.322-1.139-1.486c0,0-0.058-0.604,0.468-0.594c0,0,0.382,0.129,0.717-0.05
			c0,0,0.086-0.057,0.343-0.057c0,0,0.149,0,0.414-0.181c0,0,0.577-0.237,1.19-0.291c1.19-0.108,1.393-0.688,1.393-0.688
			c0.18,0.021,0.326,0.049,0.326,0.049s0.621,0,0.893-0.186c0,0,0.13-0.148,0.013-0.285c0,0-0.217-0.199-0.255-0.65
			c0,0-0.566-1.684-2.343-2.832c-0.422-0.274-1.23-1.316-1.23-1.316c-0.27-0.296-0.205-0.475-0.205-0.475s0.02-0.193,0.351-0.213
			c0,0,0.162-0.019,0.299-0.068c0,0,0.108-0.029,0.03-0.207c0,0-0.423-0.463-0.589-0.837c0,0-0.131-0.437-0.592-1.008
			c0,0-0.418-0.545-0.47-0.614c-0.051-0.069-0.062-0.193-0.045-0.229c0.029-0.064,0.154-0.042,0.154-0.042
			c0.105-0.043,0.311,0.133,0.311,0.133c0.209,0.112,0.3,0.021,0.3,0.021c-0.015-0.146,0.079-0.052,0.079-0.052
			s0.197,0.465,0.32,0.371c0,0,0.226-0.234-0.111-0.597c-0.072-0.079,0.188-0.315,0.188-0.315l0.627,0.547
			c-0.026,0.051-0.01,0.133-0.01,0.133s-0.059,0.014-0.145,0.09c0,0-0.158,0.019-0.139,0.098c0,0-0.02,0.048,0.112,0.038
			l0.127,0.023c0,0,0.064,0.02,0.143,0.025c-0.04,0.074-0.005,0.167-0.04,0.213c-0.079,0.095-0.316,0.176-0.316,0.176
			c-0.105,0.023-0.038,0.094-0.038,0.094c-0.115,0.007-0.087,0.049-0.087,0.049C26.688,25.983,26.799,26,26.799,26
			c-0.012,0.08,0.031,0.084,0.031,0.084l0.121,0.047c0,0.029,0.07,0.036,0.07,0.036l0.113-0.026c0.1-0.033,0.131-0.141,0.131-0.141
			c0.005-0.057,0.039-0.169,0.039-0.169c0.012-0.022,0.133-0.332,0.133-0.332s0.166-0.306-0.019-0.754
			c-0.217-0.484-0.334-0.752-0.378-0.852c-0.011-0.027-0.019-0.043-0.019-0.043s0.059-0.055,0.072-0.225
			c0,0,0.033-0.083-0.121-0.168c0,0,0.061-0.118-0.096-0.156c0,0-0.006-0.543-0.411-0.625l-0.13,0.049c0,0-0.215-0.563-0.289-0.854
			c0,0,0.006-0.241-0.196-0.393l-0.152-0.099l0.041-0.064c0.668,0.433,0.845,0.206,0.845,0.206c0.094,0,0.257-0.372,0.257-0.372
			c0.228-0.071,0.133-0.43,0.133-0.43c0.137-0.155-0.011-0.402-0.011-0.402c0.174-0.032,0.354-0.278,0.354-0.278
			c0.277-0.041,0.369-0.621,0.369-0.621c0.268-0.119,0.192-0.459,0.192-0.459c0.188-0.127,0.096-0.395,0.096-0.395
			c0.227-0.07,0.187-0.121,0.187-0.121c0.061-0.167,0.174-0.229,0.174-0.229c0.518-0.307,0.523-0.443,0.523-0.443
			c0.084-0.341,0.24-0.372,0.24-0.372c0.467-0.142,0.467-0.495,0.467-0.495c-0.066-0.211,0.202-0.35,0.202-0.35
			C30,16.428,29.892,16.132,29.892,16.132 M15.846,22.282c-0.041,0.035-0.041,0.068-0.064,0.109
			c-0.018,0.033-0.038,0.094-0.066,0.117c-0.029,0.02-0.087,0.016-0.123,0.023c-0.05,0.01-0.096,0.035-0.149,0.045
			c-0.062,0.012-0.06-0.063-0.04-0.111c0.016-0.041,0.086-0.09,0.064-0.143c-0.018-0.049-0.115-0.009-0.158-0.03
			c-0.057-0.026-0.023-0.038,0.005-0.067c0.03-0.029,0.031-0.063,0.041-0.104c0.054-0.004,0.124-0.007,0.177,0.004
			c0.033,0.006,0.164-0.053,0.201-0.041c0.04,0.02,0.108,0.015,0.131,0.044C15.908,22.181,15.889,22.251,15.846,22.282
			 M16.952,22.157c-0.096-0.047-0.113-0.14-0.225-0.159c-0.125-0.016-0.254,0-0.371-0.045c-0.03-0.009-0.186-0.086-0.146-0.138
			c0.014-0.023,0.101-0.012,0.12-0.012c0.052,0.001,0.094,0.003,0.142-0.003c-0.029-0.034-0.078-0.057-0.121-0.074
			c-0.021-0.01-0.07-0.012-0.077-0.038c-0.016-0.087,0.169-0.052,0.206-0.046c0.033,0.007,0.074,0.03,0.107,0.036
			c0.036,0.007,0.066-0.01,0.1-0.016c0.1,0,0.229,0.1,0.215,0.179c-0.011,0.069,0.017,0.075,0.08,0.109
			c0.08,0.04,0.176,0.08,0.203,0.175C17.219,22.233,17.006,22.181,16.952,22.157 M17.367,21.776
			c-0.074,0.016-0.148,0.021-0.214-0.014c-0.05-0.026-0.096-0.033-0.15-0.053c-0.12-0.049,0.006-0.14,0.099-0.113
			c0.073,0.023,0.12-0.02,0.191,0.018c0.026,0.016,0.048,0.042,0.065,0.062C17.397,21.714,17.456,21.758,17.367,21.776
			 M24.762,20.168c0.012-0.284,0.254-0.287,0.322-0.352c0,0-0.034,0.151-0.067,0.368c0,0-0.16,0.489-0.202,0.62
			C24.745,20.61,24.735,20.375,24.762,20.168 M23.344,22.362c0.088-0.118,0.217-0.435,0.127-1.254c0,0,0.115,0.443,0.436,1.055
			c0.101,0.188,0.183,0.361,0.234,0.492c0.126,0.275,0.005,0.508,0.005,0.508c-0.104,0.185-0.251,0.229-0.251,0.229
			c-0.499,0.129-0.721-0.242-0.721-0.242s-0.127-0.247,0.029-0.59C23.262,22.447,23.344,22.362,23.344,22.362 M24.588,24.196
			c0.174-0.199,0.132-0.109,0.132-0.109c0.007,0.127,0.085,0.262,0.039,0.377c0.113,0.023,0.152,0.119,0.128,0.222
			c-0.16,0.016-0.505,0.167-0.979-0.084l0.034-0.189c-0.028-0.298,0.275-0.412,0.279-0.745h0.076
			c0.066,0.143,0.053,0.272,0.085,0.434C24.417,24.256,24.588,24.196,24.588,24.196 M24.518,22.751
			c0.317,0.464,0.256,1.216,0.256,1.216C24.249,22.838,24.518,22.751,24.518,22.751 M23.635,24.545c0,0-0.224,0.194-0.494-0.129
			c0,0,0.26-1.143,0.322-0.882C23.463,23.535,23.786,23.968,23.635,24.545 M22.009,19.327c0,0,0.04,0.361-0.356,0.232
			c0,0-0.523-0.244-0.705-0.848c0,0-0.152-0.344-1.705-1.373C19.243,17.338,21.675,18.426,22.009,19.327 M16.758,16.752
			c0,0,0.594,0.331,1.145,0.357C17.903,17.11,17.367,17.485,16.758,16.752 M17.103,17.468c0,0,0.563,0.349,1.473,0.271
			C18.576,17.739,17.908,18.241,17.103,17.468 M17.838,18.349c0,0,0.891,0.345,1.606,0.178
			C19.445,18.527,18.834,19.245,17.838,18.349 M18.576,19.212c0,0,0.487,0.278,1.45,0.114
			C20.026,19.327,19.313,20.006,18.576,19.212 M19.912,21.37c0,0-0.237,0.194-0.918,0.096c0,0-0.52,0-0.813,0.045
			c0,0-0.284-0.006-0.096-0.1c0,0,0.667-0.119,1.033-0.246c0,0,0.461-0.205,0.781-0.035C19.899,21.13,20.047,21.256,19.912,21.37
			 M19.299,20.11c0,0,1.098,0.191,1.572-0.08C20.872,20.03,20.18,20.868,19.299,20.11 M18.163,17.227c0,0,0.405,0.203,0.779,0.219
			C18.942,17.446,18.581,17.67,18.163,17.227 M18.879,17.94c0,0,0.309,0.214,0.803,0.168C19.682,18.108,19.323,18.411,18.879,17.94
			 M19.655,18.688c0,0,0.442,0.21,0.801,0.111C20.456,18.8,20.149,19.237,19.655,18.688 M20.326,19.381c0,0,0.286,0.172,0.843,0.072
			C21.169,19.454,20.756,19.868,20.326,19.381 M21.057,20.192c0,0,0.67,0.117,0.957-0.049
			C22.014,20.143,21.593,20.655,21.057,20.192 M22.465,21.672c0,0-0.262-0.285-0.797-0.146c0,0-0.855,0.08-1.118-0.214
			c0,0-0.017-0.009-0.072-0.071c0,0-0.043-0.1,0.039-0.133c0,0,0.154,0.025,0.844-0.027c0,0,0.244,0,0.727-0.092
			c0,0,0.596-0.263,0.855,0.023c0,0,0.127,0.187,0.056,0.475c-0.073,0.227-0.202,0.279-0.202,0.279
			C22.655,21.836,22.465,21.672,22.465,21.672 M22.604,22.381c0,0,0.033,0.953,0.324,0.996c0,0-0.137,0.313-0.059,0.53
			C22.87,23.908,22.471,23.535,22.604,22.381 M22.805,31.275c-0.123,0.056-0.123,0.176-0.289,0.158
			c-0.008-0.08-0.016-0.273,0.111-0.246c0.137-0.057,0.034-0.104,0.146-0.183c0.112-0.08,0.198,0.047,0.204,0.166
			C22.983,31.331,22.93,31.219,22.805,31.275 M23.735,34.471c-0.1,0.029-0.08-0.104-0.08-0.104
			c-0.059-0.057,0.146-0.209,0.146-0.209c0.146-0.125,0.036,0.365,0.036,0.365C23.749,34.583,23.735,34.471,23.735,34.471
			 M23.343,36.468c-0.286-0.057-0.085-0.192,0.051-0.315c0,0,0.376-0.537,0.415-0.775c0,0,0.113-0.627,0.183-0.682
			c0,0,0.059-0.12,0.07,0.017c0,0,0.101,0.409,0.194,0.57c0,0,0.218,0.815-0.205,0.87c0,0-0.059,0.185-0.173,0.088
			c0,0-0.072,0.172-0.18,0.029c0,0-0.109,0.248-0.201,0.063C23.497,36.333,23.394,36.479,23.343,36.468 M24.536,36.874
			c0.411-0.101,0.465,0.346,0.465,0.346c0.069,0.3-0.249,0.464-0.249,0.464c-0.359,0.129-0.561-0.181-0.561-0.181
			c-0.064-0.129-0.332-0.087-0.332-0.087c-0.142,0.126-0.31,0.016-0.31,0.016c-0.244-0.195-0.076-0.466-0.076-0.466
			c0.229-0.295,0.55,0.039,0.55,0.039c0.063,0.128,0.168,0.063,0.168,0.063C24.382,36.902,24.536,36.874,24.536,36.874
			 M24.346,31.775c0.056,0.717-0.031,1.16-0.031,1.16c-0.084,1.059-0.246,0.424-0.246,0.424c-0.026-0.615-0.026-0.769-0.026-0.769
			c-0.22-0.723-0.388-1.053-0.388-1.053c-0.053-0.325-0.097-0.565-0.068-0.716c0,0,0.061-0.375-0.133-0.016
			c-0.057,0.104-0.095,0.211-0.109,0.31c0,0,0.004,0.394-0.176,0.062c-0.234-0.328-0.234-0.623-0.234-0.623l-0.389-0.917
			c-0.306-0.945-0.11-1.081-0.11-1.081c0.22-0.083,0.468,0.028,0.468,0.028c0.393,0.194,0.42,0.803,0.42,0.803
			c0.136,0.667,0.273,0.113,0.273,0.113c0.027-0.473,0.112-0.972,0.112-0.972c0.334-0.278,0.86-0.192,0.86-0.192
			c0.803,0.329,1.356,1.106,1.356,1.106c0.169,0.389-0.139,0.25-0.139,0.25c-0.305-0.305-0.777-0.443-0.777-0.443
			c-0.577-0.302-0.274,0.553-0.274,0.553c0.359,0.111,0.582,0.333,0.582,0.333c0.081,0.195-0.39,0.166-0.39,0.166
			c-0.276-0.138-0.468,0.058-0.468,0.058c-0.083,0.248,0.192,0.388,0.192,0.388c0.412,0.053,0.661,0.373,0.808,0.573
			c0.064,0.091-0.051,0.076-0.051,0.076c-0.071-0.058-0.12-0.099-0.12-0.099c-0.193-0.248-0.443-0.248-0.443-0.248
			c-0.498-0.192-0.223,0.278-0.223,0.278c0.156,0.126,0.332,0.244,0.449,0.355c0.116,0.112-0.033,0.102-0.033,0.102
			c-0.128-0.059-0.25-0.125-0.25-0.125C24.151,31.357,24.346,31.775,24.346,31.775 M27.149,32.155
			c-0.14,0.026-0.249-0.207-0.323-0.287c-0.208-0.229-0.507-0.429-0.78-0.568c-0.123-0.063-0.342-0.083-0.385-0.219
			c-0.074-0.236,0.121-0.545,0.207-0.756l0.077,0.168C26.308,31.046,27.171,31.417,27.149,32.155 M26.749,34.266
			c-0.19,0.088-0.551-0.091-0.647,0.146c0.095-0.01,0.311-0.044,0.336,0.092c0.037,0.191-0.369,0.213-0.477,0.227
			c-0.217,0.022-0.444,0.176-0.663,0.136c-0.127-0.022-0.359-0.048-0.41-0.185c-0.03-0.066-0.025-0.15,0-0.229l-0.056,0.095
			c0.017-0.033,0.036-0.066,0.056-0.098c0.023-0.062,0.049-0.117,0.086-0.158c0.105-0.199,0.225-0.396,0.381-0.551
			c0.203-0.199,0.432-0.199,0.699-0.135C26.204,33.641,27.154,34.068,26.749,34.266 M26.637,33.145
			c-0.234-0.201-0.408-0.459-0.652-0.646c-0.226-0.168-0.467-0.107-0.526-0.402c0.367,0.206,0.731,0.413,1.081,0.647
			c0.141,0.09,0.351,0.266,0.351,0.456C26.889,33.374,26.704,33.203,26.637,33.145 M27.754,34.118
			c-0.066,0.155-0.208,0.205-0.34,0.094c-0.15-0.127-0.213-0.369-0.225-0.56c-0.018-0.196,0.061-0.383,0.053-0.575
			c-0.008-0.218-0.209-0.357-0.373-0.468c-0.177-0.116-0.369-0.194-0.551-0.301c-0.243-0.138-0.469-0.301-0.695-0.466
			c-0.165-0.122,0.08-0.112,0.08-0.112c0.146,0.024,0.281,0.098,0.412,0.172c0.351,0.195,0.71,0.396,1.031,0.634
			c0.26,0.19,0.436,0.437,0.541,0.739C27.775,33.52,27.858,33.868,27.754,34.118 M26.637,29.401c0.121,0.2,0.309,0.336,0.5,0.464
			c0.336,0.222,0.689,0.419,1.014,0.658c0.279,0.205,0.531,0.444,0.77,0.695c0.248,0.264,0.512,0.542,0.676,0.863
			c0.091,0.179,0.16,0.425-0.065,0.533c-0.16,0.076-0.397,0.049-0.537-0.049c-0.282-0.19-0.258-0.692-0.383-0.981
			c-0.308-0.687-1.416-1.425-1.992-1.869C26.53,29.571,26.399,29.401,26.637,29.401 M26.177,29.827
			c0.184,0.063,0.206,0.278,0.34,0.397c0.237,0.225,0.517,0.411,0.771,0.619c0.195,0.162,0.371,0.34,0.549,0.521
			c0.088,0.093,0.204,0.171,0.27,0.285c0.216,0.369,0.291,0.885,0.253,1.31c-0.015,0.127-0.003,0.312-0.071,0.425
			c-0.03,0.061-0.094,0.104-0.134,0.159c-0.193,0.049-0.218-0.044-0.286-0.196c-0.057-0.142-0.133-0.229-0.164-0.379
			c-0.043-0.211-0.111-0.417-0.115-0.633c-0.002-0.471-0.354-0.906-0.354-0.906c-0.111-0.137-0.236-0.266-0.353-0.398
			c-0.14-0.157-0.343-0.348-0.424-0.551c-0.035-0.09-0.282-0.36-0.282-0.36C25.973,29.865,26.177,29.827,26.177,29.827
			 M25.284,26.006c0.124,0.168,0.161,0.412,0.197,0.617c0.067,0.389,0.081,0.805,0.197,1.188l0.267,0.131
			c0,0,0.112,0.115-0.038,0.174c-0.349,0.136-0.632,0.018-0.632,0.018c-0.153,0.184-0.513-0.057-0.513-0.057
			c-0.383-0.375-0.62-0.088-0.62-0.088c-0.242,0.186-0.392,0.11-0.392,0.11c-0.208-0.049-0.287-0.075-0.498-0.035
			c-0.015,0.005-0.028,0.011-0.042,0.013c-0.22,0.085-0.43-0.038-0.43-0.038c-0.526-0.042-0.507-0.181-0.507-0.181
			c-0.176,0.207-0.349-0.186-0.349-0.186c0.173-0.133,0.24-0.253,0.24-0.253c-0.165-1.772,0.904-2.735,0.904-2.735l0.078,0.222
			c-0.753,0.908-0.531,1.383-0.531,1.383c0.106-0.324,0.667-1.328,0.667-1.328l-0.309,0.683c-0.2,0.453-0.243,1.205-0.243,1.205
			c0.03,0.384-0.01,0.544-0.01,0.544c0.206-0.201,0.217-0.74,0.217-0.74c-0.011-0.661,0.484-1.15,0.484-1.15
			c0.378-0.391,0.418-0.777,0.418-0.777c0.277,0.274,0.082,0.938,0.082,0.938c-0.051,0.684,0.426,1.237,0.426,1.237
			c0.213,0.243,0.255,0.493,0.255,0.493c0.071-0.341-0.165-1.146-0.165-1.146c0.336,0.482,0.397,1.021,0.397,1.021
			c-0.091,0.446,0.083,0.59,0.083,0.59c0.068-0.086,0.168-0.148,0.198-0.261c0.077-0.261-0.022-0.621-0.066-0.877
			c-0.055-0.335-0.126-0.674-0.242-0.998c-0.045-0.117-0.127-0.264-0.108-0.39c0.051-0.318,0.308,0.343,0.347,0.407
			C25.109,25.847,25.208,25.911,25.284,26.006 M26.022,24.756c-0.236,0.129-0.511-0.583-0.568-0.699
			c-0.02-0.027-0.057-0.044-0.051-0.08c0.127,0.053,0.159,0.177,0.248,0.274C25.711,24.315,26.282,24.61,26.022,24.756
			 M26.944,24.11l0.207,0.488c0.045,0.176-0.066,0.111-0.066,0.111c-0.266-0.156-0.55-0.414-0.55-0.414
			c-0.134-0.258,0.083-0.298,0.229-0.298C26.854,24,26.944,24.11,26.944,24.11 M26.295,23.035c0.01-0.015,0.287-0.216,0.243-0.083
			c-0.038,0.041-0.072,0.088-0.089,0.145c0.055,0.08,0.209-0.133,0.276-0.004c-0.019,0.077-0.062,0.136-0.127,0.179
			c0.025,0.006,0.22,0.09,0.245,0.161c0.039,0.119-0.682,0.423-0.698,0.295c-0.009-0.061,0.31-0.175,0.215-0.228
			c-0.112-0.064-0.221,0.08-0.333-0.01C25.899,23.38,26.259,23.084,26.295,23.035 M25.016,23.399
			c-0.148-0.229-0.138-0.416-0.138-0.416c-0.007-0.582-0.413-1.046-0.503-1.162c-0.368-0.643,0-1.607,0-1.607
			c0.007-0.082-0.041-0.05-0.041-0.05c-0.086,0.035-0.124,0.088-0.124,0.088c-0.013,0-0.132,0.083-0.202,0.093
			c-0.132,0.033-0.227,0.008-0.292-0.021c-0.076-0.048-0.11-0.192-0.11-0.192s-0.217-0.25-0.25-0.545c0,0-0.048-0.154,0.002-0.346
			v-0.056c0.016,0.025,0.031,0.04,0.031,0.04c0.081,0.086,0.204,0.066,0.204,0.066s0.006,0.051-0.087,0.249
			c0,0-0.083,0.09,0.008,0.128c0.06,0.022,0.159,0.067,0.286,0.069c0.163,0,0.084-0.069,0.084-0.069
			c-0.09,0.003-0.194-0.044-0.238-0.071c-0.027-0.004,0-0.053,0-0.053c0.073-0.133,0.096-0.318,0.096-0.318
			c0.034-0.252-0.313-0.223-0.313-0.223c-0.021,0-0.053,0.024-0.051,0.009c0-0.012,0.005-0.045,0.005-0.045
			c0.102-0.265,0.492-0.401,0.492-0.401c0.174,0.117,0.464,0.182,0.464,0.182c0.244,0.084,0.262,0.328,0.235,0.378
			c-0.05,0.211,0.057,0.402,0.057,0.402c0.249,0.002,0.086,0.174,0.086,0.174c-0.192,0.127-0.192,0.32-0.192,0.32
			c0.003,0.125-0.078,0.825-0.078,0.825s-0.064,0.299,0.31,0.546c0,0,0.089,0.104,0.455,0.127c0,0,0.132-0.014,0.261,0.016
			c0.074,0,0.177,0.029,0.296,0.143c0,0,0.119,0.156,0.145,0.41c-0.01,0.178,0.248,0.549,0.248,0.549
			c0.066,0.224-0.082,0.088-0.082,0.088c-0.143-0.067-0.412-0.474-0.412-0.474s-0.078-0.077-0.117-0.087
			c0,0-0.504-0.283-0.211,0.215c0,0,0.054,0.119,0.252,0.373c0.132,0.135,0.194,0.293,0.224,0.428
			c0.044,0.296-0.34,0.384-0.34,0.384C25.252,23.628,25.102,23.491,25.016,23.399 M25.961,20.649c0.066,0.5,0.547,0.474,0.547,0.474
			C25.756,21.442,25.961,20.649,25.961,20.649 M26.267,20.352c0,0,0.001,0.321,0.487,0.36
			C26.754,20.712,26.242,21.071,26.267,20.352 M26.33,19.201c0,0,0.137,0.345,0.091,0.552c0,0-0.022,0.482-0.182,0.385
			c0,0-0.849-0.408-0.438-1.129c0,0,0.553-1.326,1.474-2.14c0,0-0.413,0.732-0.794,1.564C26.481,18.433,26.308,18.778,26.33,19.201
			 M26.831,18.977c0.527-0.123,0.988-0.432,0.988-0.432C27.396,19.265,26.831,18.977,26.831,18.977 M26.6,19.627
			c0.453-0.004,0.896-0.207,0.896-0.207C26.978,20.026,26.6,19.627,26.6,19.627 M27.471,18.211c0.655-0.113,1.143-0.527,1.143-0.527
			C28.086,18.451,27.471,18.211,27.471,18.211 M27.932,17.338c0.742-0.178,1.233-0.586,1.233-0.586
			C28.516,17.627,27.932,17.338,27.932,17.338 M28.407,16.497c0.744-0.283,1.28-0.743,1.28-0.743
			C29.098,16.651,28.407,16.497,28.407,16.497 M26.598,18.551c0.376-0.022,0.707-0.283,0.707-0.283
			C26.905,18.79,26.598,18.551,26.598,18.551 M26.971,17.766c0.441-0.061,0.766-0.32,0.766-0.32
			C27.258,18.04,26.971,17.766,26.971,17.766 M27.399,17.004c0.447-0.136,0.813-0.427,0.813-0.427
			C27.758,17.19,27.399,17.004,27.399,17.004"/>
		<path fill="#06205D" d="M23.895,19.092c-0.014,0.033-0.027,0.104,0.057,0.168c0,0,0.185,0.111,0.438,0.066
			c0,0,0.062-0.01,0.021-0.041l-0.063-0.076c0.059,0.016,0.108,0.016,0.15,0.01c0,0,0.042-0.005,0.014-0.035
			c-0.07-0.07-0.281-0.247-0.549-0.139C23.963,19.045,23.93,19.053,23.895,19.092"/>
		<path fill="#06205D" d="M23.946,19.899c-0.1-0.019-0.301-0.061-0.357-0.039c0,0-0.046,0.03,0.044,0.128
			c0,0,0.033,0.277,0.323,0.075c0,0-0.007-0.05-0.139-0.09l0.13-0.043C23.947,19.93,23.983,19.917,23.946,19.899"/>
	</g>
</g>
</svg>
